<?xml version="1.0" standalone="no"?><!DOCTYPE svg PUBLIC "-//W3C//DTD SVG 1.1//EN" "http://www.w3.org/Graphics/SVG/1.1/DTD/svg11.dtd"><svg t="1628258091792" class="icon" viewBox="0 0 1024 1024" version="1.1" xmlns="http://www.w3.org/2000/svg" p-id="6860" width="200" height="200" xmlns:xlink="http://www.w3.org/1999/xlink"><defs><style type="text/css"></style></defs><path d="M 512 72 C 269 72 72 269 72 512 s 197 440 440 440 s 440 -197 440 -440 S 755 72 512 72 Z m 268.33 474.52 s -14.5 46.62 -15.75 59.85 c 0 0 0.63 18.9 -8.82 36.54 c 0 0 -6.62 17.56 2.44 29.49 c 0 0 13.31 31.68 -22.9 62.04 c 0 0 -1.91 18.14 -30.06 22.91 c 0 0 -12.41 22.43 -36.73 13.36 c 0 0 -6.68 42 -40.08 56.31 c 0 0 -25.29 8.6 -21.47 37.71 c 0 0 28.63 20.52 5.72 38.66 l -37.22 0.48 s -7.16 12.41 -57.73 4.3 c 0 0 -13.36 5.25 -24.34 -7.16 c 0 0 -1.91 -3.82 -1.91 -9.07 l -13.84 -2.38 s -10.02 3.82 -47.23 -65.86 c 0 0 -21.48 -32.93 -33.4 -32.93 c 0 0 -5.02 -0.87 -18.14 -5.25 c 0 0 -10.49 -4.3 -15.26 25.77 c 0 0 -5.25 33.88 -5.72 48.68 c 0 0 27.67 35.79 -10.02 34.36 l -42.47 -0.96 s -17.18 0 -10.5 -22.91 c 0 0 5.66 -9.02 13.3 -14.74 l 8.87 -71.66 s 0.31 -6.1 3.62 -20.38 c 0 0 9.53 -9.53 1.32 -52.26 c 0 0 -4.78 -19.65 -4.78 -85.91 c 0 0 -0.48 -15.14 -4.73 -27.45 c 0 0 -7.58 -23.66 6.63 -52.06 c 0 0 12.3 -33.6 9.93 -47.8 c 0 0 -0.94 -7.57 1.89 -17.98 c 0 0 -21.33 -72.29 63.73 -222.22 c 0 0 52.94 -75.59 62.39 -115.91 c 0 0 2.52 -13.23 0 -21.42 c 0 0 -3.78 -42.84 21.42 -28.35 c 0 0 44.11 47.88 10.08 112.76 c 0 0 -104.6 171.35 -83.81 251.99 c 0 0 103.35 3.78 173.29 85.05 c 0 0 23.31 -36.54 57.97 42.84 c 0 0 23.95 -4.41 48.52 1.89 c 0 0 29.62 -7.56 53.56 -25.2 c 0 -0.01 48.53 -41.58 42.23 -15.13 Z" fill="#283144" p-id="6861"></path></svg>